<?xml version="1.0" standalone="no"?>
<svg xmlns="http://www.w3.org/2000/svg" 
viewBox="0 0 1440 320">
<path fill="#0099ff" fill-opacity="1" d="M0,96L7.1,96C14.1,96,28,96,42,85.3C56.5,75,71,53,85,85.3C98.8,117,
113,203,127,240C141.2,277,155,267,169,224C183.5,181,198,107,212,112C225.9,117,240,203,254,240C268.2,277,
282,267,296,245.3C310.6,224,325,192,339,186.7C352.9,181,367,203,381,176C395.3,149,409,75,424,74.7C437.6,75,
452,149,466,192C480,235,494,245,508,229.3C522.4,213,536,171,551,165.3C564.7,160,579,192,593,224C607.1,256,621,
288,635,304C649.4,320,664,320,678,309.3C691.8,299,706,277,720,240C734.1,203,748,149,762,106.7C776.5,64,791,32,805,
37.3C818.8,43,833,85,847,101.3C861.2,117,875,107,889,117.3C903.5,128,918,160,932,192C945.9,224,960,256,974,224C988.
2,192,1002,96,1016,101.3C1030.6,107,1045,213,1059,256C1072.9,299,1087,277,1101,261.3C1115.3,245,1129,235,1144,229.3C1157.
6,224,1172,224,1186,186.7C1200,149,1214,75,1228,53.3C1242.4,32,1256,64,1271,74.7C1284.7,85,1299,75,1313,90.7C1327.1,107
,1341,149,1355,144C1369.4,139,1384,85,1398,74.7C1411.8,64,1426,96,1433,112L1440,128L1440,320L1432.9,320C1425.9,320,1412,320,1398
,320C1383.5,320,1369,320,1355,320C1341.2,320,1327,320,1313,320C1298.8,320,1285,320,1271,320C1256.5,320,1242,320,1228,320C1214.1,
320,1200,320,1186,320C1171.8,320,1158,320,1144,320C1129.4,320,1115,320,1101,320C1087.1,320,1073,320,1059,320C1044.7,320,1031,320,1016,
320C1002.4,320,988,320,974,320C960,320,946,320,932,320C917.6,320,904,320,889,320C875.3,320,861,320,847,320C832.9,320,819,320,805,320C790.6,
320,776,320,762,320C748.2,320,734,320,720,320C705.9,320,692,320,678,320C663.5,320,649,320,635,320C621.2,320,607,320,593,320C578.8,320,565,320,
551,320C536.5,320,522,320,508,320C494.1,320,480,320,466,
320C451.8,320,438,320,424,320C409.4,320,395,320,381,320C367.1,320,353,320,339,
320C324.7,320,311,320,296,320C282.4,320,268,320,254,320C240,320,226,320,212,320C197.6,320,184,320,169,320C155.3,320,
141,320,127,320C112.9,320,99,320,85,320C70.6,320,56,320,42,320C28.2,320,14,320,7,320L0,320Z">
</path></svg>